PathFileType	3	(X/Y/Z)	E:\ViconData\BIOM9541 2025\Week 7\Wed1100\Hanif high squat 5 Squat 01.trc
DataRate	CameraRate	NumFrames	NumMarkers	Units	OrigDataRate	OrigDataStartFrame	OrigNumFrames
200.0	200.0	20	19	mm	200.0	1088	1450	
Frame#	Time	C7			CLAV			RBAK			LASI			RASI			LPSI			RPSI			LTHI			LKNE			LTIB			LANK			LHEE			LTOE			RTHI			RKNE			RTIB			RANK			RHEE			RTOE			
		X1	Y1	Z1	X2	Y2	Z2	X3	Y3	Z3	X4	Y4	Z4	X5	Y5	Z5	X6	Y6	Z6	X7	Y7	Z7	X8	Y8	Z8	X9	Y9	Z9	X10	Y10	Z10	X11	Y11	Z11	X12	Y12	Z12	X13	Y13	Z13	X14	Y14	Z14	X15	Y15	Z15	X16	Y16	Z16	X17	Y17	Z17	X18	Y18	Z18	X19	Y19	Z19	
1088	5.435	302.85657	1048.4316	-1208.7695	162.5204	967.05115	-1206.0104	330.73621	963.62665	-1355.2118	245.34471	609.8186	-1083.8195	239.9032	628.0546	-1345.2168	413.8155	671.429	-1168.3905	413.797	669.4264	-1242.2686	149.45309	448.42111	-920.72198	72.399147	340.21622	-882.70325	199.37894	179.22249	-917.53223	298.85822	67.016991	-978.255	321.60114	56.784306	-1037.2468	159.50481	38.292782	-950.39862	268.83862	551.20953	-1432.1331	87.37294	334.52408	-1535.8698	129.66252	261.25742	-1529.8417	289.59555	71.169685	-1433.5558	315.51172	55.559715	-1361.0675	162.42188	40.493557	-1462.7723	
1089	5.44	302.7215	1047.4718	-1208.8485	162.26241	966.23767	-1206.4037	330.65225	962.55377	-1355.2826	245.33189	608.95471	-1083.7898	239.9232	627.0688	-1345.2222	413.8895	670.5157	-1168.642	413.8966	668.5529	-1242.3755	149.44038	448.19003	-920.5603	72.256134	340.04819	-882.42987	199.3148	179.16756	-917.43597	298.90106	67.031387	-978.36084	321.57117	56.738083	-1037.3033	159.51923	38.227055	-950.3877	268.88989	550.42102	-1432.0511	87.080154	334.16641	-1536.0126	129.49353	260.99637	-1530.0098	289.5676	71.107094	-1433.5601	315.52203	55.54306	-1361.157	162.43521	40.421722	-1462.7728	
1090	5.445	302.63193	1046.5771	-1209.0393	162.12744	965.21515	-1206.8116	330.54321	961.65894	-1355.4102	245.3419	608.16528	-1083.6937	239.9178	626.1528	-1345.2583	413.9497	669.5985	-1168.7473	413.8809	667.5991	-1242.4244	149.42435	447.8833	-920.4693	72.127899	339.88855	-882.18994	199.25305	179.07344	-917.36682	298.89691	67.059471	-978.43927	320.95779	56.180038	-1036.9237	159.5143	38.205254	-950.41125	268.92413	549.77789	-1432.0889	86.852737	333.83563	-1536.1736	129.25458	260.7746	-1530.1438	289.5596	71.051392	-1433.5769	316.24771	55.183357	-1363.0269	162.43173	40.386944	-1462.786	
1091	5.45	302.48434	1045.7139	-1209.0928	162.28835	964.28137	-1206.5453	330.47794	960.79333	-1355.5232	245.50356	607.27795	-1083.8575	239.9858	625.2658	-1345.2712	413.9642	668.8642	-1168.6949	413.8915	666.6597	-1242.4528	149.39627	447.50208	-920.36902	72.055481	339.68359	-881.95929	199.21194	178.98027	-917.29688	298.85806	67.097198	-978.46075	320.98187	56.330242	-1037.0369	159.53558	38.24263	-950.42419	268.96292	549.17041	-1432.1069	86.621193	333.66345	-1536.3544	129.03683	260.67383	-1530.272	289.54413	71.105736	-1433.5895	315.44778	55.676353	-1361.0834	162.42244	40.426151	-1462.8053	
1092	5.455	302.42703	1044.8745	-1209.2321	162.29594	963.27118	-1206.4211	330.43716	959.99353	-1355.6362	245.58742	606.38794	-1083.8549	239.9706	624.4742	-1345.3846	413.9398	668.1043	-1168.3658	413.8119	665.8078	-1242.3978	149.39478	447.1214	-920.26538	71.955482	339.46609	-881.77386	199.15431	178.80632	-917.24487	298.49945	66.665161	-978.59009	320.96155	56.528755	-1037.1486	159.5256	38.2728	-950.35211	269.0145	548.54657	-1432.1149	86.331535	333.57547	-1536.5309	128.80933	260.55753	-1530.3822	289.521	71.192917	-1433.5862	316.40866	55.105221	-1363.7026	162.40335	40.488419	-1462.7947	
1093	5.46	302.2562	1044.0262	-1209.2651	162.19472	962.4469	-1206.5298	330.29056	959.13672	-1355.7261	245.71652	605.65112	-1083.8961	239.9685	623.7277	-1345.4083	413.9705	667.3002	-1168.373	413.7939	664.7493	-1242.5094	149.41682	446.85089	-920.19891	71.879799	339.27072	-881.60895	199.0773	178.75655	-917.13788	298.78986	67.115738	-978.54858	320.89938	56.610851	-1037.2026	159.5074	38.285992	-950.3476	268.97961	548.04474	-1432.1748	86.044357	333.37119	-1536.6472	128.59399	260.35849	-1530.4673	289.47195	71.229294	-1433.5957	315.33746	55.845001	-1360.8458	162.37701	40.521976	-1462.8014	
1094	5.465	302.15472	1043.3134	-1209.3641	162.10768	961.60114	-1206.7238	330.2135	958.34229	-1355.8105	245.64264	604.91577	-1083.7318	239.9917	622.8672	-1345.3842	414.0477	666.5662	-1168.6547	413.9696	664.2576	-1242.63	149.38664	446.60135	-920.05841	71.769981	339.17242	-881.36493	199.03073	178.6806	-917.14008	298.48059	66.661377	-978.6889	320.80569	56.497002	-1037.1631	159.49026	38.264282	-950.3996	268.97281	547.52301	-1432.2271	85.809296	333.11041	-1536.7987	128.36578	260.09937	-1530.5176	289.48157	71.172272	-1433.5917	316.41119	55.222839	-1363.7461	162.37645	40.444054	-1462.7596	
1095	5.47	302.08524	1042.6027	-1209.4977	161.90779	960.87683	-1206.9882	330.09415	957.57843	-1355.9143	245.74718	604.27832	-1083.8057	239.9919	622.1063	-1345.4181	414.1669	665.6896	-1169.0469	414.0507	663.5657	-1242.7537	149.40839	446.45706	-919.9552	71.670692	339.10361	-881.11218	198.94118	178.71358	-917.03308	298.89737	66.918968	-978.82916	321.32272	56.883125	-1037.4833	159.4274	38.249996	-950.40302	268.95273	546.96008	-1432.3007	85.615479	332.81699	-1536.8905	128.16986	259.88754	-1530.6145	289.44815	71.137329	-1433.5928	315.39542	55.825676	-1361.1174	162.36447	40.40107	-1462.7788	
1096	5.475	301.96744	1041.9387	-1209.6056	161.96033	960.12256	-1206.8251	329.99896	956.91125	-1356.0354	245.85457	603.62708	-1083.8494	240.018	621.4056	-1345.4377	414.228	665.0094	-1169.1821	414.1491	663.0705	-1242.8271	149.40323	446.22488	-919.86597	71.570923	339.02567	-880.93378	198.89465	178.68126	-917.01532	298.85046	66.914688	-978.83545	321.27182	56.847225	-1037.5541	159.41856	38.232105	-950.40961	268.93759	546.44733	-1432.2661	85.415665	332.59918	-1537.0269	127.9781	259.74982	-1530.7069	289.40735	71.139694	-1433.6033	316.42548	55.272526	-1363.884	162.34993	40.372036	-1462.7701	
1097	5.48	301.83118	1041.2388	-1209.666	161.9315	959.35004	-1206.9241	329.92578	956.23505	-1356.1589	245.90332	602.98413	-1083.8934	240.0198	620.769	-1345.4344	414.3171	664.3486	-1169.1884	414.1711	662.2802	-1242.9331	149.43669	445.9873	-919.79419	71.488243	338.93646	-880.77948	198.85394	178.62482	-916.96198	298.83307	66.956078	-978.8642	321.23138	56.911045	-1037.5695	159.41237	38.246857	-950.38275	268.92551	546.04541	-1432.2889	85.174774	332.47858	-1537.1245	127.79436	259.65787	-1530.7872	289.36539	71.209129	-1433.6058	315.32822	55.940338	-1361.0497	162.32956	40.37225	-1462.7368	
1098	5.485	301.79483	1040.6477	-1209.8593	161.90622	958.67694	-1206.925	329.83316	955.61285	-1356.2849	246.02901	602.354	-1083.9459	240.1253	620.1107	-1345.4774	414.3486	663.7465	-1168.9594	414.1061	661.4806	-1242.9438	149.41595	445.74548	-919.75555	71.371643	338.77847	-880.65222	198.77948	178.52306	-916.92889	298.77539	66.972275	-978.8667	321.18246	57.018837	-1037.5759	159.41508	38.258671	-950.34064	268.95325	545.60187	-1432.2506	84.997383	332.37622	-1537.222	127.6436	259.63641	-1530.8806	289.36475	71.284149	-1433.6007	316.38571	55.343018	-1363.8455	162.32254	40.422108	-1462.7444	
1099	5.49	301.68805	1039.9562	-1209.9487	161.84396	957.90479	-1207.1241	329.77231	954.93481	-1356.397	246.15073	601.75037	-1083.9823	240.1413	619.548	-1345.5686	414.4285	663.1612	-1168.926	414.2156	660.8411	-1242.9835	149.38864	445.47797	-919.75433	71.272064	338.68555	-880.53925	198.7411	178.45851	-916.90576	298.76419	67.266289	-978.75842	321.20239	57.120178	-1037.6107	159.42874	38.272766	-950.37512	269.01016	545.1214	-1432.2439	84.817856	332.23346	-1537.3176	127.51093	259.51831	-1530.9418	289.3418	71.276024	-1433.6014	315.26538	56.10392	-1360.8848	162.35513	40.405418	-1462.7355	
1100	5.495	301.57379	1039.2959	-1210.0664	161.84203	957.21875	-1207.3837	329.74881	954.33563	-1356.5242	246.24208	601.2348	-1083.9825	240.2322	618.875	-1345.5701	414.505	662.587	-1169.0736	414.2562	660.2206	-1243.0487	149.3774	445.30692	-919.74823	71.179039	338.60529	-880.45746	198.64732	178.42461	-916.85272	298.40359	66.740097	-978.85022	321.20724	57.160934	-1037.6639	159.43939	38.237495	-950.40131	269.0274	544.71942	-1432.238	84.66861	332.07892	-1537.411	127.36469	259.33865	-1530.9998	289.33557	71.235909	-1433.5956	316.40097	55.345486	-1363.8492	162.34795	40.393574	-1462.7518	
1101	5.5	301.56644	1038.821	-1210.2914	161.77216	956.63031	-1207.3357	329.694	953.76227	-1356.5989	246.23322	600.70972	-1083.8917	240.2055	618.3484	-1345.615	414.5854	661.9699	-1169.3068	414.2992	659.6655	-1243.1024	149.38077	445.09659	-919.75275	71.076073	338.51965	-880.37939	198.60713	178.3983	-916.83392	298.42535	66.769638	-978.90643	320.58661	56.648491	-1037.4197	159.39888	38.196362	-950.35016	269.06403	544.21124	-1432.1523	84.479652	331.93198	-1537.5266	127.21951	259.17151	-1531.0374	289.31793	71.214172	-1433.6115	315.26846	56.080509	-1360.9891	162.34848	40.348099	-1462.7556	
1102	5.505	301.45306	1038.2565	-1210.3429	161.69707	955.9895	-1207.4081	329.58313	953.22485	-1356.7275	246.35777	600.20209	-1083.9056	240.1888	617.8455	-1345.6818	414.6605	661.4541	-1169.3547	414.4374	659.273	-1243.1533	149.36415	444.87799	-919.77362	71.007706	338.45074	-880.3233	198.5811	178.35632	-916.83508	298.41107	66.815903	-978.95929	321.06332	57.079643	-1037.7195	159.39394	38.199593	-950.35175	269.05637	543.8468	-1432.1433	84.263535	331.77191	-1537.5612	127.06841	259.04111	-1531.0707	289.25562	71.239555	-1433.5997	316.34064	55.35569	-1363.8143	162.3118	40.36768	-1462.745	
1103	5.51	301.3317	1037.7371	-1210.3945	161.70592	955.4422	-1207.4419	329.52963	952.70709	-1356.8566	246.41095	599.73596	-1083.9039	240.2716	617.377	-1345.6901	414.7532	660.9858	-1169.4185	414.5424	658.6624	-1243.3165	149.3676	444.69031	-919.77563	70.928673	338.38834	-880.29016	198.53789	178.34769	-916.83911	298.38666	66.863853	-978.98401	321.04391	57.072746	-1037.7059	159.36842	38.241962	-950.38452	269.08081	543.51434	-1432.1278	84.102348	331.62726	-1537.5979	126.92134	258.97028	-1531.1206	289.23068	71.299294	-1433.5953	315.22021	56.149696	-1360.9132	162.28705	40.371998	-1462.7068	
1104	5.515	301.28571	1037.2649	-1210.551	161.65402	954.95441	-1207.3856	329.55399	952.32489	-1357.0437	246.55408	599.25824	-1084.011	240.2964	616.9332	-1345.7089	414.8802	660.512	-1169.5992	414.5553	658.0898	-1243.3831	149.3343	444.534	-919.76837	70.854378	338.2919	-880.27209	198.49316	178.32654	-916.81976	298.34219	66.863335	-979.01141	320.46362	56.694946	-1037.5356	159.36293	38.239841	-950.31311	269.12308	543.13403	-1432.1357	83.942482	331.53708	-1537.6411	126.78301	258.87061	-1531.1661	289.21414	71.336494	-1433.605	316.27817	55.435448	-1363.7722	162.27292	40.43034	-1462.7357	
1105	5.52	301.24457	1036.8495	-1210.6781	161.58655	954.40942	-1207.4852	329.51727	951.88049	-1357.1411	246.67523	598.88025	-1084.0616	240.3531	616.4555	-1345.7373	414.9568	659.9681	-1169.6903	414.6808	657.7769	-1243.3881	149.3401	444.43817	-919.80005	70.790733	338.29248	-880.26697	198.47505	178.31828	-916.84381	298.34323	66.833923	-979.05286	320.45706	56.648483	-1037.5634	159.34679	38.220753	-950.3316	269.14529	542.80884	-1432.1713	83.830513	331.3674	-1537.7013	126.69854	258.73654	-1531.2129	289.22668	71.304695	-1433.5941	315.20212	56.16811	-1360.9205	162.08347	40.485779	-1462.7266	
1106	5.525	301.17892	1036.3206	-1210.7928	161.61514	953.86121	-1207.6709	329.39258	951.32953	-1357.1707	246.78835	598.52405	-1084.113	240.4495	615.9901	-1345.8414	415.0649	659.5043	-1169.7891	414.7621	657.2853	-1243.4868	149.33788	444.38013	-919.80811	70.714417	338.2287	-880.23816	198.4288	178.32387	-916.83612	298.35373	66.791718	-979.08618	320.43729	56.599964	-1037.5959	159.37195	38.193882	-950.36493	269.23123	542.44629	-1432.2036	83.732704	331.22305	-1537.7664	126.59212	258.60339	-1531.2659	289.23071	71.245644	-1433.6005	316.29184	55.439247	-1363.7832	162.30493	40.325584	-1462.709	
1107	5.53	301.10596	1035.8379	-1210.931	161.67673	953.40131	-1207.8738	329.40247	950.88159	-1357.3202	246.96924	598.13141	-1084.2014	240.5559	615.564	-1345.859	415.1759	659.1626	-1169.8806	414.8228	656.7748	-1243.5751	149.35864	444.24359	-919.86444	70.676292	338.20667	-880.23126	198.40921	178.31532	-916.81232	298.33884	66.806999	-979.07825	320.4357	56.642323	-1037.626	159.38672	38.184662	-950.37958	269.27975	542.14044	-1432.26	83.610558	331.11914	-1537.7979	126.47167	258.53622	-1531.3092	289.2066	71.247604	-1433.6106	315.1911	56.205044	-1360.9231	162.30623	40.314545	-1462.6948	
